:FULLY-SPECIFIED
:FORCE-ALL-JOINTS-BE-3DOF
:DEGREES
2446
root 2.43158 15.0531 -23.6365 -133.354 83.3156 -129.706
lfemur -30.4876 22.8881 -14.5112
ltibia 69.8059 -0 0
lfoot -24.9894 18.7336 0.128521
ltoes -30.719 0 0
rfemur -51.0312 -24.4282 10.6403
rtibia 53.0202 -0 0
rfoot 14.5 3.74112 -1.26262
rtoes 6.95085 -0 0
lowerback 18.0254 0.814448 -3.39622
upperback -0.0225414 0.820202 3.73171
thorax -10.2981 0.72376 5.76898
lowerneck 3.97916 -13.0805 -15.2578
upperneck 0.781878 -18.2754 14.0873
head 2.30067 -9.24221 6.07297
lclavicle 6.98852e-15 1.11319e-14 0
lhumerus -30.4379 -63.786 112.455
lradius 95.8471 -0 0
lwrist 57.4255 0 0
lhand -4.90735 54.774 0.241277
lfingers 7.12502 -0 0
lthumb 20.8883 83.7497 0.218963
rclavicle 6.98852e-15 1.11319e-14 0
rhumerus 15.8754 17.6614 -70.1062
rradius 114.804 -0 0
rwrist -5.52062 0 0
rhand -27.0421 -44.4268 0.0604069
rfingers 7.12502 -0 0
rthumb -0.458087 -74.0611 0.0448552
2447
root 2.50252 15.0321 -23.6376 -134.522 83.2194 -130.805
lfemur -30.3025 22.7632 -14.3754
ltibia 69.7799 -0 0
lfoot -25.0925 18.5839 0.128105
ltoes -31.0644 0 0
rfemur -50.1039 -23.9421 10.1664
rtibia 52.1322 -0 0
rfoot 15.2959 3.37897 -1.16786
rtoes 7.35623 -0 0
lowerback 17.9174 0.748194 -3.48496
upperback -0.065038 0.716792 3.74183
thorax -10.2691 0.678674 5.86103
lowerneck 3.90769 -13.0535 -15.3007
upperneck 0.980409 -18.2417 13.9495
head 2.35625 -9.2226 6.0295
lclavicle 6.98852e-15 1.11319e-14 0
lhumerus -31.3234 -63.2542 112.708
lradius 96.817 -0 0
lwrist 58.4441 0 0
lhand -4.56385 55.4511 0.293441
lfingers 7.12502 -0 0
lthumb 21.2185 84.3861 0.270589
rclavicle 6.98852e-15 1.11319e-14 0
rhumerus 14.5171 16.7901 -70.7092
rradius 115.615 -0 0
rwrist -2.57706 0 0
rhand -27.9553 -44.4579 0.0607334
rfingers 7.12502 -0 0
rthumb -1.33964 -74.0839 0.0451371
2448
root 2.57346 15.0111 -23.6387 -135.723 83.1232 -131.969
lfemur -30.1885 22.6142 -14.2385
ltibia 69.8054 -0 0
lfoot -25.1903 18.4195 0.125018
ltoes -31.4523 0 0
rfemur -49.1354 -23.4433 9.74312
rtibia 51.3432 -0 0
rfoot 15.9738 2.9483 -1.03738
rtoes 7.68289 -0 0
lowerback 17.7985 0.689446 -3.56858
upperback -0.113701 0.62376 3.74152
thorax -10.2401 0.637794 5.93652
lowerneck 3.83381 -13.0302 -15.338
upperneck 1.17369 -18.2113 13.8102
head 2.41056 -9.20479 5.98438
lclavicle 6.98852e-15 1.11319e-14 0
lhumerus -32.1593 -62.579 112.87
lradius 97.8052 -0 0
lwrist 59.4199 0 0
lhand -4.2622 56.0493 0.349529
lfingers 7.12502 -0 0
lthumb 21.508 84.9418 0.32515
rclavicle 6.98852e-15 1.11319e-14 0
rhumerus 13.2575 15.9402 -71.2443
rradius 116.387 -0 0
rwrist 0.308604 0 0
rhand -28.8468 -44.4824 0.0642916
rfingers 7.12502 -0 0
rthumb -2.20016 -74.0994 0.0487849
2449
root 2.6444 14.9901 -23.6398 -136.966 83.0277 -133.2
lfemur -30.1307 22.4515 -14.0991
ltibia 69.8727 -0 0
lfoot -25.2972 18.2491 0.119492
ltoes -31.8786 0 0
rfemur -48.1473 -22.9477 9.35832
rtibia 50.6369 -0 0
rfoot 16.5499 2.48254 -0.880503
rtoes 7.96544 -0 0
lowerback 17.6697 0.634458 -3.65102
upperback -0.168614 0.535535 3.73358
thorax -10.2117 0.598845 6.00212
lowerneck 3.759 -13.0121 -15.3714
upperneck 1.36463 -18.1869 13.6695
head 2.46473 -9.19007 5.9376
lclavicle 6.98852e-15 1.11319e-14 0
lhumerus -32.9916 -61.7766 112.974
lradius 98.8184 -0 0
lwrist 60.397 0 0
lhand -3.97063 56.571 0.405273
lfingers 7.12502 -0 0
lthumb 21.7873 85.4163 0.378496
rclavicle 6.98852e-15 1.11319e-14 0
rhumerus 12.0627 15.0578 -71.7255
rradius 117.089 -0 0
rwrist 3.20376 0 0
rhand -29.7364 -44.5106 0.0708147
rfingers 7.12502 -0 0
rthumb -3.059 -74.1179 0.0555231
2450
root 2.71534 14.9691 -23.641 -138.257 82.9336 -134.501
lfemur -30.1138 22.2856 -13.9558
ltibia 69.9957 -0 0
lfoot -25.4276 18.0812 0.111704
ltoes -32.3395 0 0
rfemur -47.1608 -22.4714 8.99875
rtibia 49.9972 -0 0
rfoot 17.0408 2.0149 -0.707203
rtoes 8.23848 -0 0
lowerback 17.5323 0.579468 -3.73619
upperback -0.229871 0.446553 3.72079
thorax -10.1845 0.559548 6.06449
lowerneck 3.68476 -13.0007 -15.4028
upperneck 1.55611 -18.171 13.5272
head 2.51991 -9.17973 5.88916
lclavicle 6.98852e-15 1.11319e-14 0
lhumerus -33.8642 -60.8623 113.052
lradius 99.8634 -0 0
lwrist 61.4193 0 0
lhand -3.65748 57.0185 0.455716
lfingers 7.12502 -0 0
lthumb 22.0867 85.8097 0.425884
rclavicle 6.98852e-15 1.11319e-14 0
rhumerus 10.9012 14.0881 -72.1632
rradius 117.686 -0 0
rwrist 6.17583 0 0
rhand -30.6444 -44.5526 0.0796955
rfingers 7.12502 -0 0
rthumb -3.9355 -74.1498 0.0647502
2451
root 2.78629 14.9482 -23.6421 -139.603 82.8414 -135.874
lfemur -30.1227 22.1269 -13.807
ltibia 70.1824 -0 0
lfoot -25.5957 17.9248 0.101789
ltoes -32.8311 0 0
rfemur -46.1969 -22.03 8.65024
rtibia 49.4078 -0 0
rfoot 17.4634 1.5784 -0.52783
rtoes 8.53662 -0 0
lowerback 17.3873 0.5207 -3.82801
upperback -0.297575 0.351249 3.70595
thorax -10.159 0.51762 6.13028
lowerneck 3.61254 -12.9974 -15.4341
upperneck 1.75107 -18.1661 13.3833
head 2.57722 -9.17505 5.83907
lclavicle 6.98852e-15 1.11319e-14 0
lhumerus -34.8178 -59.8509 113.132
lradius 100.947 -0 0
lwrist 62.531 0 0
lhand -3.29115 57.3943 0.495423
lfingers 7.12502 -0 0
lthumb 22.4366 86.1215 0.462201
rclavicle 6.98852e-15 1.11319e-14 0
rhumerus 9.74306 12.9752 -72.5643
rradius 118.146 -0 0
rwrist 9.29222 0 0
rhand -31.5908 -44.6187 0.0899645
rfingers 7.12502 -0 0
rthumb -4.84902 -74.2055 0.0755186
